<svg width="25" height="25" viewBox="0 0 25 25" fill="none" xmlns="http://www.w3.org/2000/svg">
<path d="M15.7895 14.875H16.2895V14.375C16.2895 13.7366 16.0223 13.1299 15.5558 12.6867C15.0901 12.2443 14.4638 12 13.8158 12H11.1842C10.5362 12 9.90987 12.2443 9.44423 12.6867C8.97772 13.1299 8.71053 13.7366 8.71053 14.375V14.875H9.21053H15.7895ZM22.5263 18.75V19.25H23.0263H23.6842C23.9086 19.25 24.119 19.3349 24.2702 19.4786C24.4206 19.6215 24.5 19.8096 24.5 20V23.75C24.5 23.9404 24.4206 24.1285 24.2702 24.2714C24.119 24.4151 23.9086 24.5 23.6842 24.5H1.31579C1.09139 24.5 0.881013 24.4151 0.72976 24.2714C0.579378 24.1285 0.5 23.9404 0.5 23.75V20C0.5 19.8096 0.579378 19.6215 0.72976 19.4786C0.881013 19.3349 1.09139 19.25 1.31579 19.25H1.97368H2.47368V18.75V6.875C2.47368 6.85036 2.48375 6.82121 2.51075 6.79556C2.53863 6.76908 2.58166 6.75 2.63158 6.75C2.68149 6.75 2.72453 6.76908 2.75241 6.79556C2.77941 6.82121 2.78947 6.85036 2.78947 6.875V18.75V19.25H3.28947H8.55263C8.77703 19.25 8.98741 19.3349 9.13866 19.4786C9.28904 19.6215 9.36842 19.8096 9.36842 20V21.25V21.75H9.86842H15.1316H15.6316V21.25V20C15.6316 19.8096 15.711 19.6215 15.8613 19.4786C16.0126 19.3349 16.223 19.25 16.4474 19.25H21.7105H22.2105V18.75V1.875C22.2105 1.56812 22.082 1.27933 21.8622 1.07056C21.6433 0.862619 21.3517 0.75 21.0526 0.75H3.94737C3.64831 0.75 3.35668 0.862619 3.13779 1.07056C2.91804 1.27933 2.78947 1.56811 2.78947 1.875V4.375C2.78947 4.39964 2.77941 4.42879 2.75241 4.45444C2.72453 4.48092 2.68149 4.5 2.63158 4.5C2.58166 4.5 2.53863 4.48092 2.51075 4.45444C2.48375 4.42879 2.47368 4.39964 2.47368 4.375V1.875C2.47368 1.51884 2.62238 1.17175 2.89614 0.911675C3.17077 0.650773 3.54848 0.5 3.94737 0.5H21.0526C21.4515 0.5 21.8292 0.650773 22.1039 0.911675C22.3776 1.17175 22.5263 1.51884 22.5263 1.875V18.75ZM0.815789 23.75V24.25H1.31579H23.6842H24.1842V23.75V20V19.5H23.6842H16.4474H15.9474V20V21.25C15.9474 21.4404 15.868 21.6285 15.7176 21.7714C15.5664 21.9151 15.356 22 15.1316 22H9.86842C9.64402 22 9.43365 21.9151 9.28239 21.7714C9.13201 21.6285 9.05263 21.4404 9.05263 21.25V20V19.5H8.55263H1.31579H0.815789V20V23.75ZM14.2791 7.02372C14.5101 7.35211 14.6316 7.73532 14.6316 8.125C14.6316 8.64692 14.4136 9.15298 14.0164 9.53027C13.6184 9.90838 13.0734 10.125 12.5 10.125C12.0729 10.125 11.6573 10.0046 11.3059 9.78154C10.9548 9.55867 10.6852 9.24452 10.5271 8.88187C10.3691 8.51957 10.3282 8.12251 10.4084 7.73974C10.4886 7.35675 10.6872 7.00125 10.9836 6.71973C11.2802 6.43795 11.6611 6.24339 12.0794 6.16434C12.4979 6.08528 12.9313 6.12605 13.324 6.28057C13.7165 6.43503 14.0479 6.69499 14.2791 7.02372ZM10.997 7.14289C10.7942 7.43118 10.6842 7.773 10.6842 8.125C10.6842 8.59765 10.8821 9.04541 11.2252 9.37138C11.5675 9.69653 12.0265 9.875 12.5 9.875C12.8536 9.875 13.2012 9.77551 13.499 9.58647C13.797 9.39729 14.0333 9.12576 14.174 8.80319C14.3148 8.48027 14.3521 8.12333 14.2799 7.77867C14.2078 7.43423 14.0305 7.12154 13.7748 6.87862C13.5193 6.63595 13.1969 6.47336 12.8495 6.40771C12.5022 6.34208 12.142 6.37557 11.8134 6.50488C11.4846 6.63425 11.1995 6.85494 10.997 7.14289ZM8.39474 15V14.375C8.39474 13.6873 8.68206 13.0223 9.20258 12.5278C9.72397 12.0325 10.4364 11.75 11.1842 11.75H13.8158C14.5636 11.75 15.276 12.0325 15.7974 12.5278C16.3179 13.0223 16.6053 13.6873 16.6053 14.375V15C16.6053 15.0246 16.5952 15.0538 16.5682 15.0794C16.5403 15.1059 16.4973 15.125 16.4474 15.125H8.55263C8.50271 15.125 8.45968 15.1059 8.4318 15.0794C8.4048 15.0538 8.39474 15.0246 8.39474 15Z" stroke="black"/>
</svg>
