<svg width="15" height="15" viewBox="0 0 15 15" fill="none" xmlns="http://www.w3.org/2000/svg">
<path d="M1.55312 14.6669C1.5651 14.7607 1.60325 14.846 1.66061 14.9071C1.71796 14.9682 1.79072 15.0012 1.86563 15H2.91562C2.96101 14.9995 3.00576 14.9865 3.04678 14.9618C3.08779 14.9372 3.12408 14.9015 3.15313 14.8572C3.18236 14.814 3.20391 14.7633 3.21631 14.7085C3.22871 14.6538 3.23168 14.5963 3.225 14.54L2.57187 9.49605H2.95312C7.70312 10.0472 9.77188 13.5804 9.79063 13.6121C9.81969 13.6639 9.85814 13.7061 9.90273 13.735C9.94733 13.764 9.99677 13.779 10.0469 13.7786C10.0788 13.7798 10.1107 13.7731 10.1406 13.7588C10.2039 13.7336 10.2591 13.6835 10.2985 13.6158C10.3378 13.548 10.3591 13.4662 10.3594 13.3821V8.96073H11.0125C11.0954 8.96073 11.1749 8.91895 11.2335 8.84459C11.2921 8.77022 11.325 8.66936 11.325 8.5642V5.70518C11.325 5.60001 11.2921 5.49915 11.2335 5.42478C11.1749 5.35042 11.0954 5.30864 11.0125 5.30864H10.3594V0.911061C10.3577 0.83208 10.3375 0.755533 10.3013 0.69124C10.2651 0.626947 10.2146 0.577839 10.1562 0.550214C10.0938 0.523604 10.0264 0.522695 9.96352 0.547619C9.90067 0.572543 9.84563 0.622025 9.80625 0.689001C9.78438 0.728655 7.51562 4.49574 2.9125 4.82487H0.975C0.718565 4.82484 0.472446 4.95301 0.289953 5.18161C0.10746 5.4102 0.00328763 5.72083 0 6.0462V8.25886C0.000644501 8.56684 0.0920775 8.86336 0.256316 9.09011C0.420554 9.31686 0.64571 9.45742 0.8875 9.48416L1.55312 14.6669ZM2.54687 14.2069H2.12813L1.52187 9.49605H1.94063L2.54687 14.2069ZM10.7 6.10171V8.1518H10.3594V6.10171H10.7ZM9.73438 1.94205V12.3352C8.81563 11.1932 6.74688 9.19865 3.225 8.72281V5.57432C5.66334 5.36968 7.96742 4.084 9.73438 1.94205V1.94205ZM0.625 8.25886V6.0462C0.625 5.92841 0.661875 5.81544 0.727513 5.73216C0.79315 5.64887 0.882174 5.60208 0.975 5.60208H2.6V8.70298H0.975C0.882174 8.70298 0.79315 8.65619 0.727513 8.5729C0.661875 8.48962 0.625 8.37665 0.625 8.25886V8.25886ZM12.2187 4.74556C12.2439 4.81439 12.284 4.87264 12.3344 4.91341C12.3848 4.95417 12.4434 4.97574 12.5031 4.97555C12.5483 4.97514 12.593 4.963 12.6344 4.93986L14.5312 3.85335C14.5689 3.83194 14.6029 3.80127 14.6312 3.7631C14.6595 3.72493 14.6815 3.68003 14.696 3.631C14.7106 3.58196 14.7173 3.52975 14.7158 3.4774C14.7144 3.42504 14.7047 3.37357 14.6875 3.32596C14.6528 3.2311 14.59 3.15747 14.5128 3.12108C14.4355 3.08469 14.3501 3.08849 14.275 3.13166L12.375 4.21817C12.3373 4.23958 12.3034 4.27026 12.2751 4.30842C12.2468 4.34659 12.2247 4.39149 12.2102 4.44053C12.1957 4.48956 12.189 4.54177 12.1904 4.59413C12.1919 4.64648 12.2015 4.69795 12.2187 4.74556V4.74556ZM12.9688 0.110059L11.5625 2.05705C11.5212 2.11354 11.4938 2.18407 11.4836 2.26003C11.4734 2.33598 11.4808 2.41406 11.505 2.48472C11.5292 2.55539 11.5691 2.61558 11.6198 2.65794C11.6706 2.70029 11.7299 2.72298 11.7906 2.72323C11.834 2.7236 11.877 2.71251 11.9168 2.69066C11.9566 2.66882 11.9924 2.63669 12.0219 2.59634L13.4281 0.645382C13.478 0.566944 13.5024 0.467382 13.4964 0.366918C13.4905 0.266454 13.4547 0.17262 13.3962 0.104475C13.3377 0.0363304 13.261 -0.00101612 13.1816 2.10373e-05C13.1022 0.00105819 13.0261 0.0404011 12.9688 0.110059ZM14.5312 9.82915L12.6344 8.73867C12.597 8.71706 12.5567 8.705 12.5157 8.70316C12.4747 8.70133 12.4338 8.70977 12.3953 8.728C12.3569 8.74623 12.3216 8.77388 12.2916 8.80939C12.2616 8.8449 12.2373 8.88757 12.2203 8.93496C12.2033 8.98234 12.1938 9.03352 12.1923 9.08557C12.1909 9.13762 12.1975 9.18952 12.2119 9.23831C12.2263 9.2871 12.2481 9.33182 12.276 9.36992C12.304 9.40802 12.3377 9.43876 12.375 9.46037L14.275 10.5508C14.3152 10.5741 14.3589 10.5863 14.4031 10.5865C14.4744 10.5861 14.5434 10.5548 14.5987 10.4978C14.654 10.4409 14.6923 10.3616 14.7072 10.2732C14.7222 10.1848 14.7129 10.0926 14.6809 10.0119C14.6489 9.93109 14.5961 9.86662 14.5312 9.82915ZM11.5719 11.6215L12.9688 13.5724C12.9982 13.6128 13.034 13.6449 13.0739 13.6668C13.1137 13.6886 13.1566 13.6997 13.2 13.6993C13.2774 13.6991 13.3521 13.6623 13.4094 13.5962C13.4701 13.5251 13.5062 13.4264 13.5097 13.3216C13.5133 13.2168 13.4839 13.1145 13.4281 13.0371L12.0312 11.0862C12.0044 11.0439 11.9711 11.0092 11.9332 10.9839C11.8954 10.9587 11.8539 10.9436 11.8113 10.9396C11.7687 10.9355 11.7259 10.9426 11.6855 10.9604C11.6451 10.9782 11.608 11.0063 11.5766 11.0429C11.5451 11.0796 11.5199 11.1241 11.5025 11.1736C11.4851 11.2232 11.4759 11.2767 11.4755 11.3309C11.475 11.3851 11.4834 11.4389 11.4999 11.4889C11.5165 11.5389 11.541 11.584 11.5719 11.6215V11.6215ZM14.6875 6.44273H12.7125C12.6296 6.44273 12.5501 6.48451 12.4915 6.55887C12.4329 6.63324 12.4 6.7341 12.4 6.83927C12.4 6.94444 12.4329 7.04529 12.4915 7.11966C12.5501 7.19402 12.6296 7.2358 12.7125 7.2358H14.6875C14.7704 7.2358 14.8499 7.19402 14.9085 7.11966C14.9671 7.04529 15 6.94444 15 6.83927C15 6.7341 14.9671 6.63324 14.9085 6.55887C14.8499 6.48451 14.7704 6.44273 14.6875 6.44273Z" fill="#CD5C02"/>
</svg>
