<svg width="20" height="20" viewBox="0 0 20 20" fill="none" xmlns="http://www.w3.org/2000/svg">
<path d="M3.78874 18.5714C3.78874 18.759 3.8211 18.9448 3.88396 19.1181C3.94682 19.2914 4.03895 19.4489 4.1551 19.5816C4.27125 19.7142 4.40914 19.8195 4.5609 19.8913C4.71265 19.963 4.87531 20 5.03957 20C5.37131 20 5.68946 19.8495 5.92403 19.5816C6.04018 19.4489 6.13232 19.2914 6.19518 19.1181C6.25804 18.9448 6.29039 18.759 6.29039 18.5714C6.29039 18.1925 6.15861 17.8292 5.92403 17.5613C5.68946 17.2934 5.37131 17.1429 5.03957 17.1429C4.70783 17.1429 4.38968 17.2934 4.1551 17.5613C3.92053 17.8292 3.78874 18.1925 3.78874 18.5714V18.5714ZM15.0462 18.5714C15.0462 18.759 15.0785 18.9448 15.1414 19.1181C15.2042 19.2914 15.2964 19.4489 15.4125 19.5816C15.5287 19.7142 15.6666 19.8195 15.8183 19.8913C15.9701 19.963 16.1327 20 16.297 20C16.6287 20 16.9469 19.8495 17.1814 19.5816C17.2976 19.4489 17.3897 19.2914 17.4526 19.1181C17.5154 18.9448 17.5478 18.759 17.5478 18.5714C17.5478 18.1925 17.416 17.8292 17.1814 17.5613C16.9469 17.2934 16.6287 17.1429 16.297 17.1429C15.9652 17.1429 15.6471 17.2934 15.4125 17.5613C15.1779 17.8292 15.0462 18.1925 15.0462 18.5714ZM0 0.714286C0 0.903726 0.0658914 1.08541 0.183179 1.21936C0.300466 1.35332 0.459542 1.42857 0.625412 1.42857H1.92502L2.70178 5.22286L3.78874 11.4286C3.78874 11.48 3.81001 11.5243 3.81501 11.5743L3.17834 14.8457C3.15776 14.9501 3.15804 15.0585 3.17917 15.1627C3.2003 15.267 3.24172 15.3645 3.30037 15.4479C3.35902 15.5314 3.43339 15.5987 3.51794 15.6448C3.60249 15.6909 3.69505 15.7146 3.78874 15.7143H17.9781C18.144 15.7143 18.303 15.639 18.4203 15.5051C18.5376 15.3711 18.6035 15.1894 18.6035 15C18.6035 14.8106 18.5376 14.6289 18.4203 14.4949C18.303 14.361 18.144 14.2857 17.9781 14.2857H4.56926L4.8557 12.8143C4.91824 12.8257 4.97452 12.8571 5.03957 12.8571H16.4408C17.1313 12.8571 17.5478 12.7014 17.8805 11.7857L19.9119 4.66857C20.2646 3.39286 19.4903 2.85714 18.7986 2.85714H3.78874C3.69118 2.85714 3.60612 2.89571 3.51481 2.92L3.02949 0.551429C2.99732 0.394505 2.91962 0.254621 2.80903 0.15451C2.69844 0.0543986 2.56146 -5.45717e-05 2.42034 4.10396e-08H0.625412C0.459542 4.10396e-08 0.300466 0.0752551 0.183179 0.20921C0.0658914 0.343164 0 0.524845 0 0.714286V0.714286ZM3.81376 4.28571H18.7048L16.7085 11.2843C16.6847 11.3457 16.6647 11.39 16.6497 11.42C16.6084 11.4243 16.5434 11.4286 16.4408 11.4286H5.03957V11.2871L5.0158 11.1486L3.81376 4.28571Z" fill="black"/>
</svg>
