<svg width="20" height="20" viewBox="0 0 20 20" fill="none" xmlns="http://www.w3.org/2000/svg">
<path d="M11.4167 3V3.25H11.6667H15C16.2904 3.25 17.5156 3.55826 18.4069 4.09305C19.3008 4.62938 19.75 5.32355 19.75 6C19.75 6.14602 19.652 6.33148 19.3832 6.49273C19.117 6.65245 18.7397 6.75 18.3333 6.75C17.927 6.75 17.5496 6.65245 17.2834 6.49273C17.0147 6.33148 16.9167 6.14602 16.9167 6C16.9167 5.61559 16.6635 5.29233 16.3071 5.07852C15.9482 4.86316 15.4777 4.75 15 4.75H6.66667C5.74695 4.75 4.85251 4.96852 4.18102 5.37141C3.5121 5.77276 3.08333 6.35037 3.08333 7C3.08333 7.64963 3.5121 8.22724 4.18102 8.62859C4.85251 9.03148 5.74695 9.25 6.66667 9.25H13.3333C15.0658 9.25 16.7149 9.66362 17.9188 10.3859C19.1252 11.1098 19.75 12.0583 19.75 13C19.75 13.9417 19.1252 14.8902 17.9188 15.6141C16.7149 16.3364 15.0658 16.75 13.3333 16.75H11.6667H11.4167V17V19C11.4167 19.146 11.3187 19.3315 11.0499 19.4927C10.7837 19.6525 10.4064 19.75 10 19.75C9.59364 19.75 9.2163 19.6525 8.95011 19.4927C8.68135 19.3315 8.58333 19.146 8.58333 19V17V16.75H8.33333H5C3.70958 16.75 2.4844 16.4417 1.59309 15.9069C0.699205 15.3706 0.25 14.6765 0.25 14C0.25 13.854 0.348016 13.6685 0.61678 13.5073C0.882972 13.3476 1.2603 13.25 1.66667 13.25C2.07303 13.25 2.45036 13.3476 2.71655 13.5073C2.98532 13.6685 3.08333 13.854 3.08333 14C3.08333 14.3844 3.33651 14.7077 3.69286 14.9215C4.05179 15.1368 4.52231 15.25 5 15.25H13.3333C14.2531 15.25 15.1475 15.0315 15.819 14.6286C16.4879 14.2272 16.9167 13.6496 16.9167 13C16.9167 12.3504 16.4879 11.7728 15.819 11.3714C15.1475 10.9685 14.2531 10.75 13.3333 10.75H6.66667C4.93422 10.75 3.28512 10.3364 2.08124 9.61405C0.874799 8.89019 0.25 7.94167 0.25 7C0.25 6.05833 0.874799 5.10981 2.08124 4.38595C3.28512 3.66362 4.93422 3.25 6.66667 3.25H8.33333H8.58333V3V1C8.58333 0.85398 8.68135 0.668525 8.95011 0.507266C9.21631 0.347551 9.59364 0.25 10 0.25C10.4064 0.25 10.7837 0.347551 11.0499 0.507266C11.3187 0.668525 11.4167 0.85398 11.4167 1V3Z" stroke="black" stroke-width="0.5"/>
</svg>
