<svg width="22" height="23" viewBox="0 0 22 23" fill="none" xmlns="http://www.w3.org/2000/svg">
<path d="M14 0.300021H13.9988C13.4966 0.297961 13.0098 0.472541 12.6234 0.793209C12.2371 1.11381 11.9757 1.56002 11.8851 2.05379L14 0.300021ZM14 0.300021H21C21.1857 0.300021 21.3637 0.37377 21.495 0.505046C21.6263 0.636321 21.7 0.814368 21.7 1.00002V8.98858C21.6932 9.07007 21.6721 9.14977 21.6377 9.22404L21.6377 9.22402L21.6357 9.22858L19.3964 14.287C19.3963 14.2873 19.3962 14.2875 19.396 14.2878C19.3403 14.4113 19.2499 14.5161 19.1358 14.5893C19.0217 14.6624 18.8889 14.7009 18.7534 14.7C18.279 14.6925 17.8133 14.5711 17.3957 14.3459C16.9777 14.1206 16.62 13.798 16.3529 13.4053C16.0858 13.0127 15.9171 12.5615 15.861 12.0899C15.8049 11.6185 15.8631 11.1405 16.0306 10.6962C16.0306 10.6961 16.0307 10.696 16.0307 10.6959L16.2805 10.0363L16.4344 9.63002H16H13.0806C12.7659 9.62862 12.4553 9.5588 12.1703 9.42539C11.8852 9.29195 11.6326 9.0981 11.4299 8.85727C11.2287 8.61685 11.0828 8.33516 11.0025 8.03213C10.9222 7.72912 10.9095 7.41217 10.9652 7.1037C10.9652 7.10359 10.9652 7.10348 10.9652 7.10337L11.8851 2.05412L14 0.300021ZM20.3 8.79351L20.2743 8.85155L18.4443 12.9816L18.3125 13.2791L18.0266 13.1235C17.8077 13.0044 17.6191 12.8367 17.4751 12.6333L17.475 12.6331C17.3286 12.4259 17.236 12.1855 17.2056 11.9337C17.1753 11.6824 17.2078 11.4275 17.3002 11.1919C17.3004 11.1913 17.3006 11.1908 17.3008 11.1902L17.6796 10.1935L17.6801 10.1921C17.7622 9.97908 17.7902 9.749 17.7615 9.52249C17.7328 9.29598 17.6484 9.08012 17.5158 8.89427L17.5148 8.89294C17.3839 8.70732 17.2098 8.55635 17.0075 8.45304C16.8052 8.34974 16.5808 8.29722 16.3537 8.3L16.35 8.30004L13.0608 8.30002C13.0607 8.30002 13.0606 8.30002 13.0605 8.30002H13.06V8.00002C12.9936 8.00021 12.9279 7.986 12.8675 7.95838L20.3 8.79351ZM20.3 8.79351V8.73002V2.00002V1.70002H20H14.0063C13.9046 1.69627 13.8032 1.71351 13.7085 1.75071C13.6112 1.78889 13.5232 1.84724 13.4501 1.92191C13.377 1.99659 13.3206 2.08589 13.2845 2.18394C13.2533 2.26861 13.2379 2.35815 13.239 2.44813L20.3 8.79351ZM1.7 20.3V20V13.27V13.2065L1.72572 13.1485L3.55572 9.01849L3.68755 8.72097L3.97338 8.8765C4.19228 8.99561 4.38094 9.16331 4.52489 9.36673L4.52503 9.36692C4.67141 9.57414 4.76397 9.81451 4.79437 10.0664C4.8247 10.3177 4.79221 10.5725 4.69985 10.8081L4.32044 11.8066L4.31993 11.8079C4.23781 12.021 4.20983 12.251 4.2385 12.4776C4.26718 12.7041 4.3516 12.9199 4.48421 13.1058L4.48764 13.1106L4.48759 13.1106C4.61668 13.2993 4.79 13.4535 4.99241 13.5597C5.19483 13.6659 5.42017 13.721 5.64877 13.72L5.65 13.72L8.93916 13.72C8.93929 13.72 8.93941 13.72 8.93954 13.72H8.94L1.7 20.3ZM1.7 20.3H2M1.7 20.3H2M2 20.3H7.99242C8.1722 20.3081 8.34889 20.2503 8.48929 20.1374C8.63131 20.0231 8.72614 19.8605 8.75569 19.6808L2 20.3ZM5.76945 11.9438L5.61556 12.35H6.05H8.93202C9.24978 12.3675 9.55984 12.4547 9.8402 12.6055C10.1228 12.7574 10.3681 12.97 10.5586 13.2282L10.5641 13.2355L10.5699 13.2426C10.7712 13.483 10.9172 13.7648 10.9975 14.0679C11.0778 14.3709 11.0905 14.6878 11.0349 14.9962C11.0348 14.9964 11.0348 14.9965 11.0348 14.9967L10.115 19.9957L10.1149 19.9959C10.0244 20.4898 9.76303 20.9362 9.37663 21.2568C8.99022 21.5775 8.50336 21.7521 8.00123 21.75H8H1C0.814348 21.75 0.6363 21.6763 0.505025 21.545C0.37375 21.4137 0.3 21.2357 0.3 21.05V13.0524C0.301704 12.9565 0.323134 12.8618 0.362967 12.7745L0.362984 12.7745L0.364322 12.7715L2.60363 7.71301C2.60374 7.71278 2.60384 7.71254 2.60395 7.71231C2.65967 7.58871 2.75008 7.48394 2.86422 7.41075C2.97857 7.33741 3.11179 7.29894 3.24763 7.30002L3.24927 7.30002C3.72575 7.30117 4.1949 7.41733 4.61687 7.63863C5.03884 7.85993 5.40114 8.17982 5.67301 8.57112C5.94487 8.96242 6.11825 9.41358 6.17842 9.88624C6.23854 10.3585 6.18385 10.8383 6.019 11.2849C6.01887 11.2853 6.01873 11.2857 6.0186 11.286L5.76945 11.9438Z" stroke="black" stroke-width="0.6"/>
</svg>
