<svg width="12" height="12" viewBox="0 0 12 12" fill="none" xmlns="http://www.w3.org/2000/svg">
<path d="M0.266888 6.00068V5.99973C0.266888 4.4747 0.871883 3.0122 1.94867 1.93394C2.48184 1.40004 3.11478 0.97655 3.81136 0.687626C4.50793 0.398703 5.2545 0.25 6.00844 0.25C7.53109 0.25 8.99144 0.855691 10.0682 1.93394C11.145 3.0122 11.75 4.4747 11.75 5.99973C11.75 7.52477 11.145 8.98727 10.0682 10.0655C8.99144 11.1438 7.53109 11.7495 6.00844 11.7495H0.616044V11.7492L0.605513 11.7497C0.536456 11.7526 0.468069 11.7349 0.409028 11.6988C0.351203 11.6635 0.304877 11.612 0.275707 11.5507C0.25027 11.488 0.243513 11.4192 0.256317 11.3526C0.269347 11.2849 0.30204 11.2226 0.350241 11.1735C0.350408 11.1733 0.350575 11.1732 0.350742 11.173L1.54788 9.97422L1.70816 9.81372L1.56396 9.63863C0.720766 8.61484 0.261869 7.32782 0.266888 6.00068ZM1.88311 10.6229L1.45704 11.0495H2.06001H6.00844V10.7995L6.00864 11.0495C7.17546 11.0486 8.30583 10.6426 9.20716 9.90074C10.1085 9.15889 10.725 8.12711 10.9517 6.98123C11.1785 5.83535 11.0015 4.64617 10.4508 3.61629C9.90016 2.5864 9.00989 1.77948 7.93163 1.33309C6.85335 0.886695 5.65385 0.828475 4.53751 1.16836C3.42117 1.50824 2.45712 2.22518 1.80956 3.19693C1.16201 4.16868 0.870979 5.33514 0.986001 6.49761C1.10101 7.65992 1.61486 8.74643 2.44011 9.57203C2.50499 9.63754 2.54145 9.72615 2.54145 9.81857C2.54145 9.91101 2.50497 9.99963 2.44007 10.0651C2.43998 10.0652 2.43989 10.0653 2.4398 10.0654L1.88311 10.6229ZM3.01267 4.44981H9.00422C9.09671 4.44981 9.18549 4.4866 9.25099 4.5522C9.31651 4.6178 9.35338 4.70686 9.35338 4.79979C9.35338 4.89272 9.31651 4.98177 9.25099 5.04738C9.18549 5.11297 9.09671 5.14976 9.00422 5.14976H3.01267C2.92017 5.14976 2.8314 5.11297 2.7659 5.04738C2.70038 4.98177 2.66351 4.89272 2.66351 4.79979C2.66351 4.70686 2.70038 4.61781 2.7659 4.5522C2.8314 4.4866 2.92017 4.44981 3.01267 4.44981ZM3.01267 6.84971H6.6076C6.70009 6.84971 6.78886 6.8865 6.85437 6.95209C6.91989 7.0177 6.95676 7.10675 6.95676 7.19968C6.95676 7.29261 6.91989 7.38166 6.85437 7.44727C6.78886 7.51287 6.70009 7.54965 6.6076 7.54965H3.01267C2.92017 7.54965 2.8314 7.51287 2.7659 7.44727C2.70038 7.38166 2.66351 7.29261 2.66351 7.19968C2.66351 7.10675 2.70038 7.0177 2.7659 6.95209C2.8314 6.8865 2.92017 6.84971 3.01267 6.84971Z" stroke="#373449" stroke-width="0.5"/>
</svg>
