<svg width="12" height="12" viewBox="0 0 12 12" fill="none" xmlns="http://www.w3.org/2000/svg">
<mask id="path-1-inside-1_828_3" fill="white">
<path d="M1.2425 11.7335C1.25208 11.8086 1.2826 11.8768 1.32848 11.9257C1.37437 11.9746 1.43258 12.001 1.4925 12H2.3325C2.36881 11.9996 2.40461 11.9892 2.43742 11.9694C2.47023 11.9497 2.49927 11.9212 2.5225 11.8858C2.54589 11.8512 2.56313 11.8106 2.57305 11.7668C2.58297 11.723 2.58534 11.677 2.58 11.632L2.0575 7.59684H2.3625C6.1625 8.03779 7.8175 10.8643 7.8325 10.8897C7.85575 10.9311 7.88651 10.9648 7.92219 10.988C7.95787 11.0112 7.99742 11.0232 8.0375 11.0229C8.06307 11.0238 8.08855 11.0185 8.1125 11.0071C8.16309 10.9869 8.20731 10.9468 8.23877 10.8926C8.27022 10.8384 8.28729 10.773 8.2875 10.7057V7.16859H8.81C8.8763 7.16859 8.93989 7.13516 8.98678 7.07567C9.03366 7.01618 9.06 6.93549 9.06 6.85136V4.56414C9.06 4.48001 9.03366 4.39932 8.98678 4.33983C8.93989 4.28033 8.8763 4.24691 8.81 4.24691H8.2875V0.728849C8.28616 0.665664 8.26998 0.604427 8.24102 0.552992C8.21207 0.501558 8.17167 0.462271 8.125 0.440171C8.07506 0.418883 8.0211 0.418156 7.97082 0.438095C7.92053 0.458034 7.8765 0.49762 7.845 0.551201C7.8275 0.582924 6.0125 3.59659 2.33 3.85989H0.78C0.574852 3.85987 0.377957 3.96241 0.231962 4.14528C0.0859681 4.32816 0.0026301 4.57666 0 4.83696V6.60709C0.000515601 6.85347 0.073662 7.09069 0.205052 7.27209C0.336443 7.45348 0.516568 7.56594 0.71 7.58733L1.2425 11.7335ZM2.0375 11.3655H1.7025L1.2175 7.59684H1.5525L2.0375 11.3655ZM8.56 4.88137V6.52144H8.2875V4.88137H8.56ZM7.7875 1.55364V9.8682C7.0525 8.95458 5.3975 7.35892 2.58 6.97825V4.45945C4.53067 4.29575 6.37394 3.2672 7.7875 1.55364V1.55364ZM0.5 6.60709V4.83696C0.5 4.74273 0.5295 4.65236 0.58201 4.58572C0.63452 4.51909 0.705739 4.48166 0.78 4.48166H2.08V6.96239H0.78C0.705739 6.96239 0.63452 6.92495 0.58201 6.85832C0.5295 6.79169 0.5 6.70132 0.5 6.60709V6.60709ZM9.775 3.79645C9.79508 3.85151 9.82719 3.89811 9.86751 3.93072C9.90784 3.96334 9.95468 3.98059 10.0025 3.98044C10.0387 3.98012 10.0744 3.9704 10.1075 3.95189L11.625 3.08268C11.6551 3.06555 11.6823 3.04101 11.7049 3.01048C11.7276 2.97995 11.7452 2.94403 11.7568 2.9048C11.7684 2.86557 11.7738 2.8238 11.7727 2.78192C11.7715 2.74003 11.7638 2.69886 11.75 2.66077C11.7223 2.58488 11.672 2.52597 11.6102 2.49686C11.5484 2.46775 11.48 2.47079 11.42 2.50533L9.9 3.37453C9.86986 3.39166 9.84269 3.41621 9.82006 3.44674C9.79743 3.47727 9.7798 3.51319 9.76818 3.55242C9.75655 3.59165 9.75117 3.63342 9.75234 3.6753C9.75351 3.71719 9.76121 3.75836 9.775 3.79645V3.79645ZM10.375 0.0880475L9.25 1.64564C9.21697 1.69083 9.19503 1.74726 9.18686 1.80802C9.17869 1.86878 9.18465 1.93125 9.20401 1.98778C9.22337 2.04431 9.25529 2.09246 9.29587 2.12635C9.33645 2.16023 9.38392 2.17838 9.4325 2.17858C9.4672 2.17888 9.50157 2.17001 9.53342 2.15253C9.56527 2.13505 9.5939 2.10936 9.6175 2.07707L10.7425 0.516306C10.7824 0.453555 10.8019 0.373906 10.7972 0.293534C10.7924 0.213163 10.7637 0.138096 10.717 0.0835803C10.6702 0.0290643 10.6088 -0.000812895 10.5453 1.68298e-05C10.4818 0.000846554 10.4209 0.0323209 10.375 0.0880475ZM11.625 7.86332L10.1075 6.99094C10.0776 6.97365 10.0454 6.964 10.0125 6.96253C9.97973 6.96107 9.947 6.96782 9.91625 6.9824C9.88549 6.99698 9.85729 7.01911 9.83327 7.04751C9.80925 7.07592 9.78987 7.11006 9.77625 7.14797C9.76263 7.18588 9.75502 7.22682 9.75386 7.26846C9.75271 7.3101 9.75803 7.35162 9.76952 7.39065C9.78101 7.42968 9.79845 7.46546 9.82084 7.49594C9.84322 7.52642 9.87012 7.551 9.9 7.56829L11.42 8.44067C11.4522 8.45928 11.4871 8.46901 11.5225 8.46922C11.5795 8.46889 11.6347 8.44386 11.6789 8.39827C11.7232 8.35269 11.7538 8.28929 11.7658 8.21858C11.7777 8.14787 11.7703 8.07409 11.7447 8.00948C11.7191 7.94487 11.6769 7.8933 11.625 7.86332ZM9.2575 9.29719L10.375 10.858C10.3986 10.8902 10.4272 10.9159 10.4591 10.9334C10.4909 10.9509 10.5253 10.9598 10.56 10.9595C10.622 10.9593 10.6817 10.9299 10.7275 10.877C10.7761 10.8201 10.805 10.7411 10.8078 10.6573C10.8106 10.5734 10.7871 10.4916 10.7425 10.4297L9.625 8.86893C9.60355 8.83515 9.57686 8.80732 9.54659 8.78715C9.51633 8.76698 9.48312 8.7549 9.44903 8.75166C9.41494 8.74842 9.38068 8.75409 9.34839 8.76831C9.31609 8.78254 9.28644 8.80502 9.26126 8.83436C9.23608 8.8637 9.21591 8.89929 9.20199 8.93891C9.18808 8.97854 9.18072 9.02136 9.18037 9.06474C9.18002 9.10812 9.18668 9.15113 9.19995 9.19111C9.21321 9.23109 9.2328 9.26719 9.2575 9.29719V9.29719ZM11.75 5.15419H10.17C10.1037 5.15419 10.0401 5.18761 9.99322 5.2471C9.94634 5.30659 9.92 5.38728 9.92 5.47141C9.92 5.55555 9.94634 5.63624 9.99322 5.69573C10.0401 5.75522 10.1037 5.78864 10.17 5.78864H11.75C11.8163 5.78864 11.8799 5.75522 11.9268 5.69573C11.9737 5.63624 12 5.55555 12 5.47141C12 5.38728 11.9737 5.30659 11.9268 5.2471C11.8799 5.18761 11.8163 5.15419 11.75 5.15419Z"/>
</mask>
<path d="M1.2425 11.7335C1.25208 11.8086 1.2826 11.8768 1.32848 11.9257C1.37437 11.9746 1.43258 12.001 1.4925 12H2.3325C2.36881 11.9996 2.40461 11.9892 2.43742 11.9694C2.47023 11.9497 2.49927 11.9212 2.5225 11.8858C2.54589 11.8512 2.56313 11.8106 2.57305 11.7668C2.58297 11.723 2.58534 11.677 2.58 11.632L2.0575 7.59684H2.3625C6.1625 8.03779 7.8175 10.8643 7.8325 10.8897C7.85575 10.9311 7.88651 10.9648 7.92219 10.988C7.95787 11.0112 7.99742 11.0232 8.0375 11.0229C8.06307 11.0238 8.08855 11.0185 8.1125 11.0071C8.16309 10.9869 8.20731 10.9468 8.23877 10.8926C8.27022 10.8384 8.28729 10.773 8.2875 10.7057V7.16859H8.81C8.8763 7.16859 8.93989 7.13516 8.98678 7.07567C9.03366 7.01618 9.06 6.93549 9.06 6.85136V4.56414C9.06 4.48001 9.03366 4.39932 8.98678 4.33983C8.93989 4.28033 8.8763 4.24691 8.81 4.24691H8.2875V0.728849C8.28616 0.665664 8.26998 0.604427 8.24102 0.552992C8.21207 0.501558 8.17167 0.462271 8.125 0.440171C8.07506 0.418883 8.0211 0.418156 7.97082 0.438095C7.92053 0.458034 7.8765 0.49762 7.845 0.551201C7.8275 0.582924 6.0125 3.59659 2.33 3.85989H0.78C0.574852 3.85987 0.377957 3.96241 0.231962 4.14528C0.0859681 4.32816 0.0026301 4.57666 0 4.83696V6.60709C0.000515601 6.85347 0.073662 7.09069 0.205052 7.27209C0.336443 7.45348 0.516568 7.56594 0.71 7.58733L1.2425 11.7335ZM2.0375 11.3655H1.7025L1.2175 7.59684H1.5525L2.0375 11.3655ZM8.56 4.88137V6.52144H8.2875V4.88137H8.56ZM7.7875 1.55364V9.8682C7.0525 8.95458 5.3975 7.35892 2.58 6.97825V4.45945C4.53067 4.29575 6.37394 3.2672 7.7875 1.55364V1.55364ZM0.5 6.60709V4.83696C0.5 4.74273 0.5295 4.65236 0.58201 4.58572C0.63452 4.51909 0.705739 4.48166 0.78 4.48166H2.08V6.96239H0.78C0.705739 6.96239 0.63452 6.92495 0.58201 6.85832C0.5295 6.79169 0.5 6.70132 0.5 6.60709V6.60709ZM9.775 3.79645C9.79508 3.85151 9.82719 3.89811 9.86751 3.93072C9.90784 3.96334 9.95468 3.98059 10.0025 3.98044C10.0387 3.98012 10.0744 3.9704 10.1075 3.95189L11.625 3.08268C11.6551 3.06555 11.6823 3.04101 11.7049 3.01048C11.7276 2.97995 11.7452 2.94403 11.7568 2.9048C11.7684 2.86557 11.7738 2.8238 11.7727 2.78192C11.7715 2.74003 11.7638 2.69886 11.75 2.66077C11.7223 2.58488 11.672 2.52597 11.6102 2.49686C11.5484 2.46775 11.48 2.47079 11.42 2.50533L9.9 3.37453C9.86986 3.39166 9.84269 3.41621 9.82006 3.44674C9.79743 3.47727 9.7798 3.51319 9.76818 3.55242C9.75655 3.59165 9.75117 3.63342 9.75234 3.6753C9.75351 3.71719 9.76121 3.75836 9.775 3.79645V3.79645ZM10.375 0.0880475L9.25 1.64564C9.21697 1.69083 9.19503 1.74726 9.18686 1.80802C9.17869 1.86878 9.18465 1.93125 9.20401 1.98778C9.22337 2.04431 9.25529 2.09246 9.29587 2.12635C9.33645 2.16023 9.38392 2.17838 9.4325 2.17858C9.4672 2.17888 9.50157 2.17001 9.53342 2.15253C9.56527 2.13505 9.5939 2.10936 9.6175 2.07707L10.7425 0.516306C10.7824 0.453555 10.8019 0.373906 10.7972 0.293534C10.7924 0.213163 10.7637 0.138096 10.717 0.0835803C10.6702 0.0290643 10.6088 -0.000812895 10.5453 1.68298e-05C10.4818 0.000846554 10.4209 0.0323209 10.375 0.0880475ZM11.625 7.86332L10.1075 6.99094C10.0776 6.97365 10.0454 6.964 10.0125 6.96253C9.97973 6.96107 9.947 6.96782 9.91625 6.9824C9.88549 6.99698 9.85729 7.01911 9.83327 7.04751C9.80925 7.07592 9.78987 7.11006 9.77625 7.14797C9.76263 7.18588 9.75502 7.22682 9.75386 7.26846C9.75271 7.3101 9.75803 7.35162 9.76952 7.39065C9.78101 7.42968 9.79845 7.46546 9.82084 7.49594C9.84322 7.52642 9.87012 7.551 9.9 7.56829L11.42 8.44067C11.4522 8.45928 11.4871 8.46901 11.5225 8.46922C11.5795 8.46889 11.6347 8.44386 11.6789 8.39827C11.7232 8.35269 11.7538 8.28929 11.7658 8.21858C11.7777 8.14787 11.7703 8.07409 11.7447 8.00948C11.7191 7.94487 11.6769 7.8933 11.625 7.86332ZM9.2575 9.29719L10.375 10.858C10.3986 10.8902 10.4272 10.9159 10.4591 10.9334C10.4909 10.9509 10.5253 10.9598 10.56 10.9595C10.622 10.9593 10.6817 10.9299 10.7275 10.877C10.7761 10.8201 10.805 10.7411 10.8078 10.6573C10.8106 10.5734 10.7871 10.4916 10.7425 10.4297L9.625 8.86893C9.60355 8.83515 9.57686 8.80732 9.54659 8.78715C9.51633 8.76698 9.48312 8.7549 9.44903 8.75166C9.41494 8.74842 9.38068 8.75409 9.34839 8.76831C9.31609 8.78254 9.28644 8.80502 9.26126 8.83436C9.23608 8.8637 9.21591 8.89929 9.20199 8.93891C9.18808 8.97854 9.18072 9.02136 9.18037 9.06474C9.18002 9.10812 9.18668 9.15113 9.19995 9.19111C9.21321 9.23109 9.2328 9.26719 9.2575 9.29719V9.29719ZM11.75 5.15419H10.17C10.1037 5.15419 10.0401 5.18761 9.99322 5.2471C9.94634 5.30659 9.92 5.38728 9.92 5.47141C9.92 5.55555 9.94634 5.63624 9.99322 5.69573C10.0401 5.75522 10.1037 5.78864 10.17 5.78864H11.75C11.8163 5.78864 11.8799 5.75522 11.9268 5.69573C11.9737 5.63624 12 5.55555 12 5.47141C12 5.38728 11.9737 5.30659 11.9268 5.2471C11.8799 5.18761 11.8163 5.15419 11.75 5.15419Z" stroke="#373449" mask="url(#path-1-inside-1_828_3)"/>
</svg>
