<svg width="20" height="20" viewBox="0 0 20 20" fill="none" xmlns="http://www.w3.org/2000/svg">
<mask id="path-1-inside-1_832_37" fill="white">
<path d="M10 0C4.48625 0 0 4.48625 0 10C0 12.9546 1.28917 15.6133 3.33333 17.4454V17.4525L3.47833 17.5775C3.50375 17.5996 3.53167 17.6179 3.5575 17.6396C3.97434 17.9911 4.41868 18.3086 4.88625 18.5892C4.92167 18.6104 4.95792 18.6304 4.99333 18.6508C5.22542 18.7858 5.4625 18.9129 5.70583 19.0292L5.71333 19.0325C6.23828 19.2821 6.78413 19.4851 7.34458 19.6392L7.37583 19.6479C7.64292 19.7208 7.91458 19.7821 8.19 19.8325L8.26708 19.8462C8.5348 19.8935 8.80433 19.9299 9.075 19.9554C9.10625 19.9583 9.1375 19.96 9.16833 19.9625C9.44292 19.9854 9.71958 20 10 20C10.2804 20 10.5571 19.9854 10.8317 19.9625C10.8629 19.96 10.8942 19.9583 10.925 19.9554C11.1979 19.9304 11.4671 19.8929 11.7329 19.8462L11.81 19.8325C12.0839 19.7826 12.3555 19.721 12.6242 19.6479L12.6554 19.6392C13.2159 19.4851 13.7617 19.2821 14.2867 19.0325L14.2942 19.0292C14.5366 18.9126 14.7743 18.7864 15.0067 18.6508C15.0425 18.63 15.0783 18.6104 15.1137 18.5892C15.3252 18.4624 15.5318 18.3278 15.7333 18.1858C15.785 18.1496 15.8367 18.1133 15.8879 18.0758C16.0779 17.9367 16.2629 17.7912 16.4425 17.6396C16.4683 17.6179 16.4962 17.5996 16.5217 17.5775L16.6667 17.4525V17.4454C18.7108 15.6129 20 12.9546 20 10C20 4.48625 15.5137 0 10 0ZM10 10C8.16208 10 6.66667 8.50458 6.66667 6.66667C6.66667 4.82875 8.16208 3.33333 10 3.33333C11.8379 3.33333 13.3333 4.82875 13.3333 6.66667C13.3333 8.50458 11.8379 10 10 10ZM11.25 10.8333C13.7771 10.8333 15.8333 12.8896 15.8333 15.4167V17.0658C15.8158 17.0804 15.7975 17.0938 15.78 17.1083C15.6154 17.2421 15.4467 17.3692 15.2742 17.4908C15.2358 17.5179 15.1983 17.5458 15.16 17.5721C14.9737 17.6992 14.7825 17.8183 14.5879 17.9312L14.4808 17.9929C13.5911 18.4942 12.6232 18.8419 11.6179 19.0212L11.5467 19.0342C11.3098 19.0747 11.0714 19.1059 10.8321 19.1279C10.7992 19.1308 10.7658 19.1329 10.7325 19.1354C10.4896 19.1542 10.2454 19.1667 10 19.1667C9.75458 19.1667 9.51042 19.1542 9.2675 19.1346L9.16792 19.1271C8.90454 19.103 8.64235 19.0674 8.38208 19.0204C7.63288 18.8856 6.90339 18.658 6.21042 18.3429L6.14333 18.3125C5.89392 18.1963 5.64992 18.0688 5.41208 17.9304C5.2175 17.8179 5.02625 17.6983 4.84 17.5713C4.80125 17.545 4.76375 17.5171 4.72583 17.49C4.55283 17.3684 4.38411 17.2408 4.22 17.1075C4.2025 17.0933 4.18417 17.0796 4.16667 17.065V15.4167C4.16667 12.8896 6.22292 10.8333 8.75 10.8333H11.25V10.8333ZM16.6667 16.2817V15.4167C16.6667 12.8037 14.8067 10.6171 12.3417 10.1104C12.9036 9.72875 13.3637 9.21543 13.6818 8.61518C13.9999 8.01493 14.1664 7.34599 14.1667 6.66667C14.1667 4.36917 12.2975 2.5 10 2.5C7.7025 2.5 5.83333 4.36917 5.83333 6.66667C5.83362 7.34599 6.00007 8.01493 6.31817 8.61518C6.63627 9.21543 7.09636 9.72875 7.65833 10.1104C5.19333 10.6171 3.33333 12.8037 3.33333 15.4167V16.2817C1.785 14.6396 0.833333 12.4296 0.833333 10C0.833333 4.94542 4.94542 0.833333 10 0.833333C15.0546 0.833333 19.1667 4.94542 19.1667 10C19.1667 12.4296 18.215 14.6396 16.6667 16.2817Z"/>
</mask>
<path d="M3.33333 17.4454H22.3333V8.95989L16.0143 3.29647L3.33333 17.4454ZM3.33333 17.4525H-15.6667V26.1587L-9.07251 31.8433L3.33333 17.4525ZM3.47833 17.5775L15.9399 3.23493L15.9121 3.21076L15.8842 3.1867L3.47833 17.5775ZM3.5575 17.6396L15.806 3.11466L15.7866 3.09827L15.7671 3.08194L3.5575 17.6396ZM4.88625 18.5892L14.6617 2.2968L14.6613 2.29657L4.88625 18.5892ZM4.99333 18.6508L14.5467 2.22728L14.5146 2.20862L14.4825 2.19008L4.99333 18.6508ZM5.70583 19.0292L-2.48455 36.1732L-2.25052 36.285L-2.01353 36.3904L5.70583 19.0292ZM5.71333 19.0325L13.8711 1.87291L13.6532 1.76932L13.4327 1.67129L5.71333 19.0325ZM7.34458 19.6392L12.4676 1.34286L12.4248 1.33087L12.3819 1.31907L7.34458 19.6392ZM7.37583 19.6479L2.25281 37.9442L2.31223 37.9609L2.37176 37.9771L7.37583 19.6479ZM8.19 19.8325L4.76879 38.5219L4.81106 38.5297L4.85338 38.5372L8.19 19.8325ZM8.26708 19.8462L4.93046 38.551L4.94666 38.5539L4.96286 38.5567L8.26708 19.8462ZM9.075 19.9554L7.29503 38.8719L7.30218 38.8725L7.30934 38.8732L9.075 19.9554ZM9.16833 19.9625L10.7486 1.02833L10.7262 1.02646L10.7038 1.02465L9.16833 19.9625ZM10.8317 19.9625L9.31651 1.02301L9.28396 1.02561L9.25142 1.02833L10.8317 19.9625ZM10.925 19.9554L9.1918 1.03463L9.16374 1.0372L9.13569 1.03986L10.925 19.9554ZM11.7329 19.8462L15.0181 38.5601L15.0438 38.5556L15.0695 38.551L11.7329 19.8462ZM11.81 19.8325L15.1466 38.5372L15.1811 38.5311L15.2156 38.5248L11.81 19.8325ZM12.6242 19.6479L17.6129 37.9813L17.6801 37.963L17.7472 37.9442L12.6242 19.6479ZM12.6554 19.6392L7.61814 1.31907L7.57524 1.33087L7.5324 1.34286L12.6554 19.6392ZM14.2867 19.0325L6.56799 1.67099L6.34718 1.76916L6.12895 1.87291L14.2867 19.0325ZM14.2942 19.0292L22.0128 36.3907L22.2722 36.2754L22.5281 36.1523L14.2942 19.0292ZM15.0067 18.6508L5.45688 2.2252L5.44522 2.23198L5.43357 2.23877L15.0067 18.6508ZM15.1137 18.5892L5.34067 2.29539L5.33833 2.2968L15.1137 18.5892ZM15.7333 18.1858L4.82072 2.63222L4.80487 2.64334L4.78905 2.65449L15.7333 18.1858ZM15.8879 18.0758L27.1076 33.4094L27.1151 33.4039L15.8879 18.0758ZM16.4425 17.6396L4.23287 3.08194L4.20799 3.10281L4.18319 3.12375L16.4425 17.6396ZM16.5217 17.5775L4.11582 3.1867L4.08791 3.21076L4.06009 3.23493L16.5217 17.5775ZM16.6667 17.4525L29.0725 31.8433L35.6667 26.1587V17.4525H16.6667ZM16.6667 17.4454L3.98408 3.2979L-2.33333 8.96117V17.4454H16.6667ZM15.8333 17.0658L27.9968 31.662L34.8333 25.965V17.0658H15.8333ZM15.78 17.1083L27.7627 31.8534L27.8535 31.7795L27.9435 31.7045L15.78 17.1083ZM15.2742 17.4908L4.32308 1.96429L4.31682 1.9687L4.31057 1.97312L15.2742 17.4908ZM15.16 17.5721L25.8688 33.2667L25.882 33.2577L25.8951 33.2487L15.16 17.5721ZM14.5879 17.9312L24.0696 34.3963L24.097 34.3805L24.1242 34.3647L14.5879 17.9312ZM14.4808 17.9929L23.8074 34.5463L23.8852 34.5025L23.9626 34.4579L14.4808 17.9929ZM11.6179 19.0212L8.28013 0.316726L8.25451 0.321299L8.22889 0.325943L11.6179 19.0212ZM11.5467 19.0342L14.7479 37.7625L14.8419 37.7465L14.9357 37.7295L11.5467 19.0342ZM10.8321 19.1279L12.5091 38.0538L12.5396 38.0511L12.5702 38.0483L10.8321 19.1279ZM10.7325 19.1354L9.31149 0.188629L9.29089 0.190174L9.2703 0.191764L10.7325 19.1354ZM9.2675 19.1346L10.7943 0.196026L10.7444 0.192006L10.6945 0.18825L9.2675 19.1346ZM9.16792 19.1271L7.43708 38.0481L7.58888 38.062L7.74087 38.0734L9.16792 19.1271ZM8.38208 19.0204L11.7575 0.322645L11.7476 0.320862L8.38208 19.0204ZM6.21042 18.3429L14.0745 1.04681L14.0654 1.04266L14.0563 1.03853L6.21042 18.3429ZM6.14333 18.3125L-1.88168 35.5346L-1.79234 35.5762L-1.70258 35.6169L6.14333 18.3125ZM5.41208 17.9304L14.9668 1.50762L14.9444 1.49462L14.9221 1.48169L5.41208 17.9304ZM4.84 17.5713L15.5488 1.87665L15.5225 1.85868L15.4961 1.8408L4.84 17.5713ZM4.72583 17.49L15.7694 2.02906L15.71 1.98666L15.6503 1.9447L4.72583 17.49ZM4.22 17.1075L16.2013 2.36134L16.188 2.35058L16.1748 2.33985L4.22 17.1075ZM4.16667 17.065H-14.8333V25.9641L-7.99684 31.6612L4.16667 17.065ZM16.6667 16.2817H-2.33333V64.1276L30.4905 29.3163L16.6667 16.2817ZM12.3417 10.1104L1.667 -5.60745L-35.545 19.6648L8.5163 28.7213L12.3417 10.1104ZM14.1667 6.66667L33.1667 6.67475V6.66667H14.1667ZM5.83333 6.66667L-13.1667 6.66667L-13.1667 6.67475L5.83333 6.66667ZM7.65833 10.1104L11.4837 28.7213L55.545 19.6648L18.333 -5.60745L7.65833 10.1104ZM3.33333 16.2817L-10.4905 29.3163L22.3333 64.1276V16.2817H3.33333ZM10 -19C-6.00716 -19 -19 -6.00716 -19 10H19C19 14.9797 14.9797 19 10 19V-19ZM-19 10C-19 18.6026 -15.2246 26.3272 -9.34765 31.5944L16.0143 3.29647C17.8029 4.89951 19 7.30654 19 10H-19ZM-15.6667 17.4454V17.4525H22.3333V17.4454H-15.6667ZM-9.07251 31.8433L-8.92751 31.9683L15.8842 3.1867L15.7392 3.0617L-9.07251 31.8433ZM-8.98324 31.9201C-8.66433 32.1971 -8.39337 32.4141 -8.21394 32.5546C-8.12291 32.6259 -8.04667 32.6842 -7.99412 32.7242C-7.94339 32.7628 -7.90272 32.7933 -7.89153 32.8017C-7.866 32.8209 -7.89384 32.8 -7.90806 32.7893C-7.93141 32.7717 -7.98056 32.7346 -8.04301 32.6865C-8.16525 32.5926 -8.38467 32.4215 -8.65213 32.1972L15.7671 3.08194C15.4868 2.84679 15.2542 2.66536 15.1186 2.56116C15.0495 2.50803 14.9937 2.46584 14.9637 2.4432C14.9483 2.43162 14.9359 2.42231 14.9305 2.41822C14.9278 2.41623 14.9252 2.41427 14.925 2.41415C14.9242 2.41353 14.9254 2.41442 14.9271 2.41567C14.9315 2.41904 14.9655 2.44455 15.0096 2.47807C15.0555 2.51297 15.1251 2.56625 15.2095 2.63234C15.3758 2.76248 15.6337 2.96889 15.9399 3.23493L-8.98324 31.9201ZM-8.69103 32.1645C-7.49823 33.1704 -6.22674 34.079 -4.88878 34.8818L14.6613 2.29657C15.0641 2.53824 15.4469 2.81182 15.806 3.11466L-8.69103 32.1645ZM-4.88917 34.8815C-4.68589 35.0035 -4.52092 35.0975 -4.46636 35.1286C-4.45056 35.1376 -4.4372 35.1452 -4.43086 35.1488C-4.42915 35.1498 -4.42755 35.1507 -4.42643 35.1513C-4.42515 35.1521 -4.42445 35.1525 -4.42377 35.1528C-4.42244 35.1536 -4.42277 35.1534 -4.42382 35.1528C-4.42577 35.1517 -4.45544 35.1349 -4.4958 35.1116L14.4825 2.19008C14.4244 2.15661 14.3769 2.1296 14.3571 2.11833C14.3516 2.1152 14.3468 2.11247 14.3436 2.11069C14.3376 2.10723 14.341 2.1092 14.3373 2.10709C14.3347 2.10561 14.3391 2.1081 14.3459 2.112C14.3591 2.11948 14.3973 2.14126 14.4479 2.17063C14.4994 2.20054 14.5731 2.24364 14.6617 2.2968L-4.88917 34.8815ZM-4.56004 35.0744C-3.94819 35.4303 -3.25466 35.8053 -2.48455 36.1732L13.8962 1.88514C14.1797 2.02055 14.399 2.14137 14.5467 2.22728L-4.56004 35.0744ZM-2.01353 36.3904L-2.00603 36.3937L13.4327 1.67129L13.4252 1.66796L-2.01353 36.3904ZM-2.44439 36.1921C-0.915226 36.9191 0.674774 37.5104 2.3073 37.9593L12.3819 1.31907C12.8935 1.45975 13.3918 1.64507 13.8711 1.87291L-2.44439 36.1921ZM2.22156 37.9355L2.25281 37.9442L12.4989 1.35161L12.4676 1.34286L2.22156 37.9355ZM2.37176 37.9771C3.18851 38.2001 3.98957 38.3793 4.76879 38.5219L11.6112 1.14306C11.8396 1.18486 12.0973 1.24158 12.3799 1.31872L2.37176 37.9771ZM4.85338 38.5372L4.93046 38.551L11.6037 1.14152L11.5266 1.12777L4.85338 38.5372ZM4.96286 38.5567C5.73566 38.6932 6.51369 38.7983 7.29503 38.8719L10.855 1.03898C11.095 1.06156 11.3339 1.09385 11.5713 1.13577L4.96286 38.5567ZM7.30934 38.8732C7.4405 38.8854 7.5507 38.8944 7.62927 38.9005C7.70581 38.9065 7.7673 38.9108 7.79086 38.9124C7.79748 38.9129 7.80308 38.9133 7.80637 38.9135C7.8162 38.9142 7.80538 38.9135 7.81187 38.9139C7.8133 38.914 7.80473 38.9134 7.79273 38.9126C7.76963 38.9109 7.71027 38.9066 7.63283 38.9004L10.7038 1.02465C10.611 1.01712 10.5361 1.0117 10.4975 1.00894C10.4778 1.00753 10.4615 1.00639 10.4551 1.00595C10.4441 1.00518 10.4505 1.00563 10.4528 1.00579C10.4608 1.00635 10.5067 1.00956 10.5676 1.01429C10.6305 1.01917 10.7251 1.02685 10.8407 1.03764L7.30934 38.8732ZM7.58809 38.8967C8.24514 38.9515 9.06577 39 10 39V1C10.3734 1 10.6407 1.01932 10.7486 1.02833L7.58809 38.8967ZM10 39C10.9342 39 11.7549 38.9515 12.4119 38.8967L9.25142 1.02833C9.35931 1.01932 9.6266 1 10 1V39ZM12.3468 38.902C12.274 38.9078 12.2184 38.9118 12.1985 38.9132C12.1883 38.9139 12.181 38.9144 12.184 38.9142C12.1849 38.9142 12.1849 38.9142 12.1866 38.914C12.1879 38.9139 12.1897 38.9138 12.1917 38.9137C12.1958 38.9134 12.2021 38.913 12.2095 38.9124C12.236 38.9106 12.3005 38.906 12.3808 38.8998C12.4629 38.8933 12.5777 38.8839 12.7143 38.871L9.13569 1.03986C9.25684 1.0284 9.35619 1.02025 9.42283 1.01505C9.48763 1.00999 9.53654 1.00656 9.54753 1.00579C9.55245 1.00544 9.55799 1.00506 9.54957 1.00564C9.54485 1.00597 9.52968 1.00703 9.51167 1.0083C9.47617 1.01082 9.40497 1.01593 9.31651 1.02301L12.3468 38.902ZM12.6582 38.8762C13.5188 38.7974 14.3096 38.6845 15.0181 38.5601L8.44773 1.13242C8.62452 1.10138 8.87704 1.06347 9.1918 1.03463L12.6582 38.8762ZM15.0695 38.551L15.1466 38.5372L8.47337 1.12777L8.39629 1.14152L15.0695 38.551ZM15.2156 38.5248C16.0221 38.3779 16.8219 38.1965 17.6129 37.9813L7.63547 1.31453C7.88918 1.2455 8.14574 1.18733 8.40444 1.1402L15.2156 38.5248ZM17.7472 37.9442L17.7784 37.9355L7.5324 1.34286L7.50115 1.35161L17.7472 37.9442ZM17.6927 37.9593C19.3252 37.5104 20.9152 36.9191 22.4444 36.1921L6.12895 1.87291C6.6082 1.64507 7.10651 1.45975 7.61814 1.31907L17.6927 37.9593ZM22.0053 36.394L22.0128 36.3907L6.57549 1.66766L6.56799 1.67099L22.0053 36.394ZM22.5281 36.1523C23.2262 35.8166 23.9106 35.4532 24.5798 35.0629L5.43357 2.23877C5.63799 2.11953 5.84705 2.00852 6.06025 1.906L22.5281 36.1523ZM24.5565 35.0765C24.4965 35.1113 24.4511 35.1372 24.4357 35.146C24.4279 35.1504 24.4226 35.1534 24.4261 35.1514C24.4265 35.1512 24.4391 35.1441 24.4509 35.1374C24.4757 35.1232 24.5328 35.0907 24.6032 35.05C24.6752 35.0084 24.7736 34.9509 24.8892 34.8815L5.33833 2.2968C5.43619 2.23809 5.51682 2.19102 5.57108 2.15962C5.6236 2.12923 5.66285 2.10693 5.66986 2.10294C5.67272 2.10131 5.67639 2.09923 5.66778 2.10412C5.66241 2.10717 5.64813 2.11527 5.63133 2.12484C5.59809 2.14377 5.53471 2.17994 5.45688 2.2252L24.5565 35.0765ZM24.8868 34.8829C25.4978 34.5165 26.0952 34.1276 26.6776 33.7172L4.78905 2.65449C4.96848 2.52805 5.15248 2.40828 5.34067 2.29539L24.8868 34.8829ZM26.6459 33.7394C26.6724 33.7209 26.8787 33.5769 27.1076 33.4094L4.66823 2.74226C4.74171 2.68849 4.79694 2.64918 4.8207 2.63233C4.82708 2.62781 4.83203 2.62431 4.83521 2.62206C4.83682 2.62093 4.83805 2.62006 4.83885 2.61949C4.83926 2.61921 4.83957 2.61899 4.83977 2.61885C4.83997 2.61871 4.84008 2.61863 4.84008 2.61863C4.84008 2.61863 4.83999 2.6187 4.83979 2.61884C4.83959 2.61898 4.83929 2.61919 4.83888 2.61947C4.83806 2.62005 4.83689 2.62087 4.83526 2.62202C4.83163 2.62457 4.8276 2.6274 4.82072 2.63222L26.6459 33.7394ZM27.1151 33.4039C27.6521 33.0106 28.1817 32.5947 28.7018 32.1554L4.18319 3.12375C4.34412 2.98784 4.50376 2.86272 4.66075 2.74773L27.1151 33.4039ZM28.6521 32.1972C28.3847 32.4215 28.1653 32.5925 28.0431 32.6865C27.9806 32.7345 27.9315 32.7716 27.9082 32.7892C27.8939 32.7999 27.8661 32.8208 27.8916 32.8016C27.9028 32.7932 27.9435 32.7627 27.9942 32.7241C28.0468 32.6842 28.123 32.6258 28.214 32.5545C28.3934 32.4141 28.6644 32.1971 28.9832 31.9201L4.06009 3.23493C4.36626 2.96892 4.62416 2.76253 4.7904 2.6324C4.87482 2.56632 4.94441 2.51304 4.99029 2.47815C5.03436 2.44463 5.06835 2.41913 5.07284 2.41575C5.0745 2.4145 5.07569 2.41361 5.07487 2.41423C5.0747 2.41435 5.0721 2.41631 5.06944 2.4183C5.06399 2.42239 5.05161 2.4317 5.03624 2.44328C5.0062 2.46592 4.95039 2.5081 4.88129 2.56122C4.74578 2.66541 4.51321 2.84682 4.23287 3.08194L28.6521 32.1972ZM28.9275 31.9683L29.0725 31.8433L4.26082 3.0617L4.11582 3.1867L28.9275 31.9683ZM35.6667 17.4525V17.4454H-2.33333V17.4525H35.6667ZM29.3492 31.5929C35.2237 26.3267 39 18.6038 39 10H1C1 7.30533 2.19794 4.8991 3.98408 3.2979L29.3492 31.5929ZM39 10C39 -6.00716 26.0072 -19 10 -19V19C5.02034 19 1 14.9797 1 10H39ZM10 -9C18.6555 -9 25.6667 -1.98883 25.6667 6.66667H-12.3333C-12.3333 18.998 -2.33133 29 10 29V-9ZM25.6667 6.66667C25.6667 15.3222 18.6555 22.3333 10 22.3333V-15.6667C-2.33133 -15.6667 -12.3333 -5.66466 -12.3333 6.66667H25.6667ZM10 22.3333C1.34451 22.3333 -5.66667 15.3222 -5.66667 6.66667H32.3333C32.3333 -5.66466 22.3313 -15.6667 10 -15.6667V22.3333ZM-5.66667 6.66667C-5.66667 -1.98883 1.34451 -9 10 -9V29C22.3313 29 32.3333 18.998 32.3333 6.66667H-5.66667ZM11.25 29.8333C3.28367 29.8333 -3.16667 23.383 -3.16667 15.4167H34.8333C34.8333 2.39617 24.2705 -8.16667 11.25 -8.16667V29.8333ZM-3.16667 15.4167V17.0658H34.8333V15.4167H-3.16667ZM3.66983 2.46963C3.74703 2.4053 3.81592 2.34896 3.87404 2.30192C3.93201 2.255 3.9817 2.21538 4.01983 2.18516C4.05762 2.15522 4.08787 2.1315 4.10533 2.11784C4.11427 2.11084 4.12129 2.10536 4.12511 2.10239C4.12849 2.09975 4.13123 2.09762 4.12946 2.09899C4.12899 2.09936 4.12401 2.10324 4.11839 2.10762C4.11234 2.11234 4.10308 2.11957 4.0919 2.12832C4.06996 2.14548 4.03525 2.17271 3.99301 2.20618C3.95042 2.23992 3.8963 2.28309 3.83391 2.33359C3.77136 2.3842 3.69807 2.44415 3.6165 2.51213L27.9435 31.7045C27.8663 31.7689 27.7974 31.8252 27.7393 31.8722C27.6813 31.9192 27.6316 31.9588 27.5935 31.989C27.5557 32.0189 27.5255 32.0427 27.508 32.0563C27.4991 32.0633 27.492 32.0688 27.4882 32.0718C27.4848 32.0744 27.4821 32.0766 27.4839 32.0752C27.4843 32.0748 27.4893 32.0709 27.4949 32.0665C27.501 32.0618 27.5103 32.0546 27.5214 32.0459C27.5434 32.0287 27.5781 32.0015 27.6203 31.968C27.6629 31.9342 27.717 31.8911 27.7794 31.8406C27.842 31.79 27.9153 31.73 27.9968 31.662L3.66983 2.46963ZM3.79734 2.36331C3.99456 2.20303 4.17249 2.0705 4.32308 1.96429L26.2253 33.0174C26.7208 32.6678 27.2363 32.2811 27.7627 31.8534L3.79734 2.36331ZM4.31057 1.97312C4.23944 2.02337 4.1819 2.06468 4.15218 2.08605C4.13719 2.09683 4.12414 2.10624 4.11944 2.10963C4.11206 2.11495 4.11468 2.11306 4.11763 2.11094C4.12398 2.10637 4.15935 2.0809 4.20754 2.04677C4.25714 2.01165 4.33211 1.95897 4.4249 1.89543L25.8951 33.2487C26.0071 33.1721 26.1011 33.1061 26.1697 33.0575C26.2369 33.0099 26.2912 32.9708 26.3165 32.9526C26.329 32.9437 26.3411 32.9349 26.3432 32.9334C26.348 32.93 26.3444 32.9325 26.3389 32.9365C26.3282 32.9442 26.2897 32.9718 26.2378 33.0085L4.31057 1.97312ZM4.45115 1.87748C4.69738 1.70947 4.9034 1.58379 5.05159 1.4978L24.1242 34.3647C24.6616 34.0529 25.2501 33.6889 25.8688 33.2667L4.45115 1.87748ZM5.10619 1.46623L4.99911 1.5279L23.9626 34.4579L24.0696 34.3963L5.10619 1.46623ZM5.15429 1.4395C6.1257 0.892184 7.18247 0.512602 8.28013 0.316726L14.9557 37.7258C18.064 37.1711 21.0565 36.0962 23.8074 34.5463L5.15429 1.4395ZM8.22889 0.325943L8.15764 0.338858L14.9357 37.7295L15.0069 37.7166L8.22889 0.325943ZM8.34541 0.305793C8.59353 0.263382 8.84325 0.230617 9.09401 0.207582L12.5702 38.0483C13.2996 37.9812 14.026 37.8859 14.7479 37.7625L8.34541 0.305793ZM9.15511 0.202068C9.22876 0.195542 9.28956 0.190638 9.33206 0.187328C9.37387 0.184072 9.40519 0.181802 9.41636 0.180997C9.42223 0.180574 9.4259 0.180314 9.42418 0.180436C9.42317 0.180508 9.42246 0.180558 9.41956 0.180764C9.41724 0.180928 9.41348 0.181195 9.40927 0.181495C9.39411 0.182573 9.35682 0.185229 9.31149 0.188629L12.1535 38.0822C12.1382 38.0833 12.126 38.0842 12.1183 38.0848C12.1144 38.0851 12.1112 38.0853 12.1092 38.0855C12.1072 38.0856 12.1059 38.0857 12.1057 38.0857C12.0952 38.0865 12.1288 38.0841 12.1485 38.0826C12.1978 38.0791 12.3365 38.0691 12.5091 38.0538L9.15511 0.202068ZM9.2703 0.191764C9.34312 0.186143 9.6119 0.166666 10 0.166666V38.1667C10.8789 38.1667 11.636 38.1222 12.1947 38.0791L9.2703 0.191764ZM10 0.166666C10.3917 0.166666 10.6748 0.186392 10.7943 0.196026L7.74072 38.0731C8.34606 38.1219 9.11743 38.1667 10 38.1667V0.166666ZM10.6945 0.18825L10.595 0.180749L7.74087 38.0734L7.84046 38.0809L10.6945 0.18825ZM10.8988 0.206083C11.1866 0.232412 11.4731 0.271305 11.7575 0.322648L5.00666 37.7182C5.8116 37.8635 6.62251 37.9736 7.43708 38.0481L10.8988 0.206083ZM11.7476 0.320862C12.5504 0.465343 13.332 0.709198 14.0745 1.04681L-1.65372 35.639C0.474746 36.6068 2.7154 37.3058 5.01656 37.72L11.7476 0.320862ZM14.0563 1.03853L13.9892 1.00812L-1.70258 35.6169L-1.63549 35.6473L14.0563 1.03853ZM14.1683 1.09044C14.4407 1.21733 14.7071 1.35654 14.9668 1.50762L-4.14258 34.3532C-3.40723 34.781 -2.65281 35.1752 -1.88168 35.5346L14.1683 1.09044ZM14.9221 1.48169C15.1069 1.58856 15.3179 1.71905 15.5488 1.87665L-5.86885 33.2659C-5.26537 33.6776 -4.67189 34.0473 -4.09789 34.3791L14.9221 1.48169ZM15.4961 1.8408C15.6018 1.91242 15.6893 1.97335 15.7523 2.01775C15.8145 2.06152 15.8616 2.0954 15.8821 2.11016C15.8953 2.11963 15.9159 2.13453 15.8878 2.11423C15.8727 2.10328 15.8261 2.06961 15.7694 2.02906L-6.31769 32.9509C-6.35549 32.9239 -6.38314 32.9039 -6.37937 32.9066C-6.37893 32.907 -6.3784 32.9073 -6.37537 32.9095C-6.37302 32.9112 -6.36857 32.9145 -6.36363 32.918C-6.35384 32.9251 -6.33706 32.9372 -6.31693 32.9517C-6.24549 33.0031 -6.0569 33.1386 -5.81611 33.3017L15.4961 1.8408ZM15.6503 1.9447C15.8388 2.07717 16.0226 2.21614 16.2013 2.36134L-7.76127 31.8537C-7.25433 32.2655 -6.73314 32.6597 -6.19862 33.0353L15.6503 1.9447ZM16.1748 2.33985C16.0807 2.26373 16.0049 2.20377 15.9663 2.17338C15.9465 2.15774 15.9304 2.14517 15.9244 2.14046C15.9117 2.13047 15.9229 2.13928 15.924 2.14009C15.9332 2.14738 15.9825 2.186 16.0463 2.237C16.1122 2.28973 16.2111 2.36954 16.3302 2.4688L-7.99684 31.6612C-7.86898 31.7678 -7.76127 31.8547 -7.68641 31.9146C-7.61374 31.9727 -7.55554 32.0184 -7.5373 32.0327C-7.53178 32.037 -7.51607 32.0494 -7.52433 32.0429C-7.52587 32.0417 -7.53743 32.0326 -7.55282 32.0205C-7.58249 31.9971 -7.64949 31.9442 -7.73477 31.8752L16.1748 2.33985ZM23.1667 17.065V15.4167H-14.8333V17.065H23.1667ZM23.1667 15.4167C23.1667 23.383 16.7163 29.8333 8.75 29.8333V-8.16667C-4.27049 -8.16667 -14.8333 2.39617 -14.8333 15.4167H23.1667ZM8.75 29.8333H11.25V-8.16667H8.75V29.8333ZM35.6667 16.2817V15.4167H-2.33333V16.2817H35.6667ZM35.6667 15.4167C35.6667 3.58853 27.2726 -6.21783 16.167 -8.50051L8.5163 28.7213C2.34077 27.452 -2.33333 22.019 -2.33333 15.4167H35.6667ZM23.0163 25.8283C26.1419 23.7056 28.7009 20.8505 30.4701 17.512L-3.10643 -0.281685C-1.97342 -2.41966 -0.334656 -4.24805 1.667 -5.60745L23.0163 25.8283ZM30.4701 17.512C32.2393 14.1736 33.1651 10.453 33.1667 6.67475L-4.83333 6.65858C-4.8323 4.23895 -4.23944 1.85629 -3.10643 -0.281685L30.4701 17.512ZM33.1667 6.66667C33.1667 -6.12424 22.7909 -16.5 10 -16.5V21.5C1.80409 21.5 -4.83333 14.8626 -4.83333 6.66667H33.1667ZM10 -16.5C-2.79091 -16.5 -13.1667 -6.12424 -13.1667 6.66667H24.8333C24.8333 14.8626 18.1959 21.5 10 21.5V-16.5ZM-13.1667 6.67475C-13.1651 10.453 -12.2393 14.1736 -10.4701 17.512L23.1064 -0.281685C24.2394 1.85629 24.8323 4.23895 24.8333 6.65858L-13.1667 6.67475ZM-10.4701 17.512C-8.70089 20.8505 -6.14194 23.7056 -3.01634 25.8283L18.333 -5.60745C20.3347 -4.24805 21.9734 -2.41966 23.1064 -0.281685L-10.4701 17.512ZM3.83296 -8.50051C-7.27257 -6.21783 -15.6667 3.58853 -15.6667 15.4167H22.3333C22.3333 22.019 17.6592 27.452 11.4837 28.7213L3.83296 -8.50051ZM-15.6667 15.4167V16.2817H22.3333V15.4167H-15.6667ZM17.1572 3.24705C18.781 4.96916 19.8333 7.36596 19.8333 10H-18.1667C-18.1667 17.4932 -15.211 24.31 -10.4905 29.3163L17.1572 3.24705ZM19.8333 10C19.8333 15.4388 15.4388 19.8333 10 19.8333V-18.1667C-5.54799 -18.1667 -18.1667 -5.54799 -18.1667 10H19.8333ZM10 19.8333C4.56117 19.8333 0.166666 15.4388 0.166666 10H38.1667C38.1667 -5.54799 25.548 -18.1667 10 -18.1667V19.8333ZM0.166666 10C0.166666 7.36596 1.21902 4.96916 2.84282 3.24705L30.4905 29.3163C35.211 24.31 38.1667 17.4932 38.1667 10H0.166666Z" fill="black" mask="url(#path-1-inside-1_832_37)"/>
</svg>
