<svg width="50" height="50" viewBox="0 0 50 50" fill="none" xmlns="http://www.w3.org/2000/svg">
<path d="M25 48.4375C37.9442 48.4375 48.4375 37.9442 48.4375 25C48.4375 12.0558 37.9442 1.5625 25 1.5625C12.0558 1.5625 1.5625 12.0558 1.5625 25C1.5625 37.9442 12.0558 48.4375 25 48.4375Z" fill="#96D7FF"/>
<path d="M3.67276 26.5639C3.67671 22.3364 4.82403 18.1887 6.99317 14.5601C9.16231 10.9315 12.2725 7.95713 15.9943 5.9521C19.7161 3.94708 23.9109 2.98602 28.1344 3.17075C32.3579 3.35548 36.4527 4.6791 39.9853 7.00142C37.5519 4.86158 34.7013 3.24956 31.6135 2.26716C28.5256 1.28476 25.2676 0.953329 22.0452 1.2938C18.8228 1.63427 15.706 2.63924 12.8916 4.24524C10.0772 5.85125 7.62644 8.02339 5.69404 10.6245C3.76164 13.2256 2.38959 16.1992 1.66455 19.3574C0.939509 22.5156 0.87723 25.7898 1.48164 28.9733C2.08606 32.1568 3.34404 35.1804 5.17613 37.8531C7.00822 40.5258 9.37462 42.7896 12.1259 44.5014C9.4915 42.3111 7.36934 39.5698 5.90886 36.4707C4.44838 33.3716 3.6851 29.9899 3.67276 26.5639V26.5639Z" fill="#86C3EF"/>
<path d="M25 9.51562C21.9761 9.51976 19.0773 10.7228 16.9391 12.861C14.8009 14.9992 13.5979 17.898 13.5938 20.9219V44.5156C13.5946 44.8042 13.6754 45.0868 13.8271 45.3323C13.9788 45.5777 14.1954 45.7764 14.4531 45.9062C17.7198 47.5704 21.3339 48.438 25 48.438C28.6661 48.438 32.2802 47.5704 35.5469 45.9062C35.8046 45.7764 36.0212 45.5777 36.1729 45.3323C36.3246 45.0868 36.4054 44.8042 36.4063 44.5156V20.9219C36.4021 17.898 35.1991 14.9992 33.0609 12.861C30.9227 10.7228 28.0239 9.51976 25 9.51562V9.51562Z" fill="#BF9E99"/>
<path d="M24.9992 48.4375C30.8412 48.439 36.4697 46.2412 40.7649 42.2812C40.7873 42.1625 40.7873 42.0406 40.7649 41.9219C40.0741 39.8573 38.7522 38.0618 36.986 36.7889C35.2197 35.5161 33.0982 34.8302 30.9211 34.8281H19.2024C17.0279 34.8335 14.9099 35.5209 13.1468 36.7935C11.3836 38.0661 10.0642 39.8598 9.37423 41.9219C9.35182 42.0406 9.35182 42.1625 9.37423 42.2812C13.6336 46.2084 19.2058 48.4038 24.9992 48.4375V48.4375Z" fill="#FF9797"/>
<path d="M10.1711 42.7969C10.866 40.7348 12.1889 38.942 13.9542 37.6698C15.7196 36.3976 17.8389 35.7099 20.0149 35.7031H31.7492C34.2744 35.7134 36.7086 36.6471 38.593 38.3281C37.6228 37.2331 36.4324 36.3553 35.0996 35.7522C33.7667 35.1491 32.3215 34.8342 30.8586 34.8281H19.1399C16.9761 34.8465 14.8721 35.5399 13.1214 36.8116C11.3707 38.0833 10.0607 39.8698 9.37423 41.9219C9.35182 42.0406 9.35182 42.1625 9.37423 42.2812C9.65548 42.5469 9.96798 42.7813 10.2649 43.0312C10.2258 42.9565 10.1944 42.878 10.1711 42.7969V42.7969Z" fill="#E47979"/>
<path d="M29.2188 24.7344H20.7812C20.3668 24.7344 19.9694 24.899 19.6764 25.192C19.3834 25.485 19.2188 25.8825 19.2188 26.2969V36.4062C19.2201 36.6636 19.285 36.9166 19.4076 37.1429C19.5303 37.3691 19.7069 37.5616 19.9219 37.7031L24.1406 40.5156C24.3957 40.6836 24.6945 40.7732 25 40.7732C25.3055 40.7732 25.6043 40.6836 25.8594 40.5156L30.0781 37.7031C30.2931 37.5616 30.4697 37.3691 30.5924 37.1429C30.715 36.9166 30.7799 36.6636 30.7813 36.4062V26.2969C30.7813 25.8825 30.6166 25.485 30.3236 25.192C30.0306 24.899 29.6332 24.7344 29.2188 24.7344V24.7344Z" fill="#ECC5B4"/>
<path d="M33.5938 19.9531H16.4062C15.163 19.9531 13.9708 20.447 13.0917 21.3261C12.2126 22.2051 11.7188 23.3974 11.7188 24.6406C11.7188 25.8838 12.2126 27.0761 13.0917 27.9552C13.9708 28.8343 15.163 29.3281 16.4062 29.3281H33.5938C34.837 29.3281 36.0292 28.8343 36.9083 27.9552C37.7874 27.0761 38.2812 25.8838 38.2812 24.6406C38.2812 23.3974 37.7874 22.2051 36.9083 21.3261C36.0292 20.447 34.837 19.9531 33.5938 19.9531V19.9531Z" fill="#ECC5B4"/>
<path d="M28.8437 14.0625H21.1563C19.71 14.0625 18.323 14.637 17.3003 15.6597C16.2776 16.6823 15.7031 18.0694 15.7031 19.5156V24.7656C15.7031 27.2313 16.6826 29.596 18.4261 31.3395C20.1696 33.083 22.5343 34.0625 25 34.0625C27.4657 34.0625 29.8304 33.083 31.5739 31.3395C33.3174 29.596 34.2969 27.2313 34.2969 24.7656V19.4688C34.2845 18.0306 33.7045 16.6556 32.6832 15.6431C31.6619 14.6305 30.2819 14.0624 28.8437 14.0625Z" fill="#F4DAB7"/>
<path d="M36.2491 19.7804H36.3429C36.1646 17.9621 35.5509 16.2135 34.5537 14.6825C33.5566 13.1516 32.2053 11.8833 30.6143 10.9851C29.0233 10.0869 27.2393 9.58518 25.4133 9.52235C23.5874 9.45953 21.7731 9.83747 20.1241 10.6242C20.006 11.0231 20.0394 11.4515 20.2179 11.8273C21.2775 14.0339 22.8532 15.9526 24.8116 17.4211C27.1938 19.2021 30.0873 20.1666 33.0616 20.1711C34.1356 20.163 35.205 20.0319 36.2491 19.7804V19.7804Z" fill="#D6B5B0"/>
<path d="M29.6875 10.5632C27.9537 9.77715 26.0505 9.43821 24.1519 9.57734C22.2533 9.71646 20.4199 10.3292 18.8192 11.3596C17.2184 12.39 15.9015 13.8051 14.9887 15.4756C14.0758 17.1462 13.5963 19.0189 13.5938 20.9225V21.5319C14.2091 21.6259 14.8307 21.6729 15.4531 21.6725C17.5293 21.6702 19.5807 21.2211 21.468 20.3556C23.3552 19.4902 25.0341 18.2287 26.3906 16.6569C27.9051 14.9032 29.0289 12.8472 29.6875 10.6257V10.5632Z" fill="#D6B5B0"/>
</svg>
