<svg width="13" height="14" viewBox="0 0 13 14" fill="none" xmlns="http://www.w3.org/2000/svg">
<path d="M9.75369 1.00121C8.75072 2.24581 7.26041 3.28001 5.52435 3.93617C3.7883 4.59233 1.90828 4.832 0.189086 4.61627" stroke="#373449"/>
<path d="M7.55078 1H9.90993V3.2151" stroke="#373449" stroke-linejoin="round"/>
<path d="M5.25781 12.9877V9.55268H6.60571V12.9877M6.61178 12.9877V7.03862H7.95968L7.94418 12.9883M7.95361 12.9877V9.55268H9.30152V12.9877M9.30758 12.9877V11.4163H10.6535V12.9877M10.6589 12.9671V4.55078H11.9987V12.9671" stroke="#373449" stroke-linejoin="round"/>
<path d="M1.21289 13.0009V9.56589H2.56079V13.0009M2.5682 13.0009V11.4388H3.91611V13.0009M3.92352 13.0009V8.29297H5.27142V13.0009" stroke="#373449" stroke-linejoin="round"/>
</svg>
