<svg width="12" height="12" viewBox="0 0 12 12" fill="none" xmlns="http://www.w3.org/2000/svg">
<path d="M10.3654 4.69444V4.44444C10.3654 3.33512 9.90785 2.26923 9.09016 1.48183C8.27215 0.694118 7.16075 0.25 6 0.25H5.99996C4.85348 0.249801 3.75444 0.682904 2.93872 1.45348C2.12331 2.22378 1.65619 3.26941 1.63457 4.36493L1.62973 4.61H1.38462C1.08072 4.61 0.791075 4.72634 0.578955 4.9306C0.367156 5.13456 0.25 5.40913 0.25 5.69333V7.47111C0.25 7.75532 0.367156 8.02989 0.578955 8.23384C0.791075 8.4381 1.08072 8.55444 1.38462 8.55444H2.30769C2.61159 8.55444 2.90123 8.4381 3.11335 8.23384C3.32515 8.02989 3.44231 7.75532 3.44231 7.47111V5.69333C3.44231 5.40913 3.32515 5.13456 3.11335 4.9306C2.90123 4.72634 2.61159 4.61 2.30769 4.61H2.05145L2.05777 4.35383C2.08235 3.35726 2.51084 2.41151 3.24843 1.71811C3.9857 1.02501 4.9734 0.638627 6 0.638889L10.3654 4.69444ZM10.3654 4.69444H10.6154M10.3654 4.69444H10.6154M10.6154 4.69444C10.9193 4.69444 11.2089 4.81079 11.421 5.01505C11.6328 5.219 11.75 5.49357 11.75 5.77778V7.55556C11.75 7.83976 11.6328 8.11433 11.421 8.31828C11.2089 8.52255 10.9193 8.63889 10.6154 8.63889H10.3385H10.1729L10.1083 8.79137C9.90367 9.27434 9.58269 9.70466 9.17085 10.0465C8.75897 10.3885 8.26806 10.6321 7.73817 10.7566L7.59263 10.7909L7.55391 10.9353C7.4923 11.1651 7.35292 11.3706 7.15536 11.5187C6.95781 11.6668 6.71366 11.7487 6.46093 11.75H5.53846C5.23456 11.75 4.94492 11.6337 4.7328 11.4294C4.521 11.2254 4.40385 10.9509 4.40385 10.6667C4.40385 10.3825 4.521 10.1079 4.7328 9.90394C4.94492 9.69967 5.23456 9.58333 5.53846 9.58333H6.46133C6.67967 9.58351 6.89275 9.64385 7.07537 9.75634C7.25791 9.86879 7.40188 10.0283 7.49159 10.215L7.58337 10.4059L7.7868 10.3467C8.53982 10.1275 9.1766 9.63233 9.55858 8.96406L9.72203 8.67812L9.40267 8.59759C9.1589 8.53612 8.94481 8.39924 8.79267 8.21022C8.64081 8.02155 8.55883 7.79124 8.55769 7.55514V5.77778C8.55769 5.49357 8.67485 5.219 8.88665 5.01505C9.09877 4.81079 9.38841 4.69444 9.69231 4.69444H9.94231M10.6154 4.69444H9.94231M9.94231 4.69444V4.44444M9.94231 4.69444V4.44444M9.94231 4.44444C9.94231 3.43204 9.52458 2.4631 8.78427 1.75021C8.04429 1.03764 7.04263 0.638906 6.00007 0.638889L9.94231 4.44444ZM3.01923 7.47111V5.69333C3.01923 5.50605 2.94188 5.32843 2.80746 5.19898C2.67336 5.06985 2.49342 4.99889 2.30769 4.99889H1.38462C1.19888 4.99889 1.01895 5.06985 0.884848 5.19898C0.750426 5.32843 0.673077 5.50605 0.673077 5.69333V7.47111C0.673077 7.6584 0.750426 7.83602 0.884848 7.96546C1.01895 8.0946 1.19888 8.16556 1.38462 8.16556H2.30769C2.49342 8.16556 2.67336 8.0946 2.80746 7.96546C2.94188 7.83602 3.01923 7.6584 3.01923 7.47111ZM5.53846 11.3611H6.46154C6.64727 11.3611 6.8272 11.2902 6.96131 11.161C7.09573 11.0316 7.17308 10.854 7.17308 10.6667C7.17308 10.4794 7.09573 10.3018 6.96131 10.1723C6.8272 10.0432 6.64727 9.97222 6.46154 9.97222H5.53846C5.35273 9.97222 5.1728 10.0432 5.03869 10.1723C4.90427 10.3018 4.82692 10.4794 4.82692 10.6667C4.82692 10.854 4.90427 11.0316 5.03869 11.161C5.1728 11.2902 5.35273 11.3611 5.53846 11.3611ZM11.1152 8.04991C11.2496 7.92046 11.3269 7.74284 11.3269 7.55556V5.77778C11.3269 5.59049 11.2496 5.41287 11.1152 5.28343C10.9811 5.15429 10.8011 5.08333 10.6154 5.08333H9.69231C9.50658 5.08333 9.32664 5.15429 9.19254 5.28343C9.05812 5.41287 8.98077 5.59049 8.98077 5.77778V7.55556C8.98077 7.74284 9.05812 7.92046 9.19254 8.04991C9.32664 8.17904 9.50658 8.25 9.69231 8.25H10.6154C10.8011 8.25 10.9811 8.17904 11.1152 8.04991Z" stroke="#373449" stroke-width="0.5"/>
</svg>
